inDegrees=no
num_controls=7
num_derivatives=13
num_iterations=168
num_multipliers=7
num_parameters=0
num_slacks=7
num_states=26
objective=0.545338
objective_accelerations=0.042358
objective_balance=0.003891
objective_effort=0.041109
objective_height=0.448539
objective_ligament=0.009441
solver_duration=1808.488284
status=Solve_Succeeded
success=true
DataType=double
version=3
OpenSimVersion=4.5
endheader
time	/jointset/ground_pelvis/pelvis_tilt/value	/jointset/ground_pelvis/pelvis_tx/value	/jointset/ground_pelvis/pelvis_ty/value	/jointset/hip_r/hip_flexion_r/value	/jointset/hip_r/hip_adduction_r/value	/jointset/hip_r/hip_rotation_r/value	/jointset/back/lumbar_extension/value	/jointset/patellofemoral_r/patellar_flexion_r/value	/jointset/knee_r/knee_flexion_r/value	/jointset/knee_r/knee_adduction_r/value	/jointset/knee_r/knee_rotation_r/value	/jointset/ankle_r/ankle_angle_r/value	/jointset/subtalar_r/subtalar_angle_r/value	/jointset/ground_pelvis/pelvis_tilt/speed	/jointset/ground_pelvis/pelvis_tx/speed	/jointset/ground_pelvis/pelvis_ty/speed	/jointset/hip_r/hip_flexion_r/speed	/jointset/hip_r/hip_adduction_r/speed	/jointset/hip_r/hip_rotation_r/speed	/jointset/back/lumbar_extension/speed	/jointset/patellofemoral_r/patellar_flexion_r/speed	/jointset/knee_r/knee_flexion_r/speed	/jointset/knee_r/knee_adduction_r/speed	/jointset/knee_r/knee_rotation_r/speed	/jointset/ankle_r/ankle_angle_r/speed	/jointset/subtalar_r/subtalar_angle_r/speed	/forceset/tau_hip_flexion_r	/forceset/tau_hip_adduction_r	/forceset/tau_hip_rotation_r	/forceset/tau_knee_flexion_r	/forceset/tau_ankle_angle_r	/forceset/tau_subtalar_angle_r	/forceset/tau_lumbar_extension	lambda_cid13_p0	lambda_cid14_p0	lambda_cid14_p1	lambda_cid14_p2	lambda_cid14_p3	lambda_cid14_p4	lambda_cid14_p5	/jointset/ground_pelvis/pelvis_tilt/accel	/jointset/ground_pelvis/pelvis_tx/accel	/jointset/ground_pelvis/pelvis_ty/accel	/jointset/hip_r/hip_flexion_r/accel	/jointset/hip_r/hip_adduction_r/accel	/jointset/hip_r/hip_rotation_r/accel	/jointset/back/lumbar_extension/accel	/jointset/patellofemoral_r/patellar_flexion_r/accel	/jointset/knee_r/knee_flexion_r/accel	/jointset/knee_r/knee_adduction_r/accel	/jointset/knee_r/knee_rotation_r/accel	/jointset/ankle_r/ankle_angle_r/accel	/jointset/subtalar_r/subtalar_angle_r/accel	gamma_cid13_p0	gamma_cid14_p0	gamma_cid14_p1	gamma_cid14_p2	gamma_cid14_p3	gamma_cid14_p4	gamma_cid14_p5
0.5	-0.2267567454335997	-0.006538433509263365	0.8386237520722223	0.9158412893724923	-0.2278823419152079	-0.1319796763914856	-0.3401368837786183	0.6968133562497495	0.6968133562497498	0.03598178501549859	0.1745305114674574	0.1758382082570425	0.03504329307548788	-0.6090021237073595	-0.2157266302020006	-0.4110742351591308	1.985007817868516	-0.0006096749281397469	0.2664649147365716	-0.5869670551164329	1.670338513575691	1.670338513575682	-0.2793415044069518	9.401050505424316e-06	0.3745806045061561	0.09446803535245114	-0.158408273052217	-0.02524101072931902	0.009447602799539392	-0.3100578388320682	0.1171256186682895	-0.006774896285389742	0.1913157661381392	-31.51202615782279	-4.537814461632144	0.5299939485716122	-4.498318956586433	-2.176582403949494	-667.8004678593409	61.8564702589586	0.3131559726900524	0.5378133913035257	-0.339998756880288	-1.328934105484457	-0.02918423196216026	-0.4919833025200213	1.736067865679205	-1.234246418531536	-1.234246418531536	0.4710112648879894	-0.003372427751171615	-0.3515484908397166	-0.08499307561063804	-1.088879264506066e-07	-1.299807377860786e-07	5.877014139646311e-07	-8.314446639601566e-07	2.037915228583056e-08	-2.253179227413578e-07	3.874199813475142e-07
0.51	-0.2328298692633426	-0.008668569625486887	0.8344969858907368	0.9356215466020436	-0.227890656835105	-0.1293392520508602	-0.3459193965476441	0.7134524347488924	0.7134524347488984	0.03321390855157137	0.1745308545301642	0.1795655718954152	0.0359825470794758	-0.6055334002566758	-0.2102800657312741	-0.4141843611635349	1.97076635138151	-0.001062732156361861	0.2616564826792516	-0.5694621580363799	1.657237562141576	1.657237562141571	-0.2741691033465634	3.535164682242191e-05	0.3708310458370768	0.09335212632369272	-0.1663813176634684	-0.02379608745681971	0.01009587608242716	-0.3122785557319062	0.1145203937964387	-0.006266019513255237	0.1980423920673191	-30.55158941145343	-5.594256112949632	0.4727042575912324	-4.382591845188808	-1.741363097314162	-672.2001492158831	61.71200095390979	0.3771063168215385	0.551157343014791	-0.2823643407547944	-1.513358895178982	-0.05481437816686473	-0.469942686693712	1.768701727027828	-1.383942873125876	-1.383942873125257	0.550127698994107	0.001866904785471986	-0.3958363484534044	-0.1294634703823522	-8.527412385813342e-08	-4.755893816391863e-08	8.114605783142429e-07	-2.496578317297354e-07	-6.019074656269969e-08	-1.438451313850594e-07	3.760216587446108e-07
0.52	-0.2388656307014656	-0.01074362422339163	0.8303419494855004	0.955251067971751	-0.2279037919092659	-0.1267458459366806	-0.3515246601262975	0.7299533190602395	0.7299533190602506	0.03049971073272506	0.174530714719126	0.1832536045883948	0.03690972726240134	-0.6015296453834313	-0.2047103265382447	-0.4167282799093139	1.954860645899688	-0.001573705781169936	0.257061269447703	-0.5515172170419468	1.642699676016485	1.642699676016484	-0.2686057753909818	-8.717369836707358e-05	0.3667144154275427	0.09205327113997799	-0.1743543622747212	-0.0223511641843209	0.01074414936531807	-0.3144992726317453	0.1119151689245866	-0.005757142741124407	0.2047690179964983	-29.58486974168828	-6.654035198645156	0.4175582436634241	-4.270322861456234	-1.31665331855971	-676.6589872755303	61.61986460979328	0.4201622572022173	0.5624483357641025	-0.226757305155303	-1.661781904447843	-0.04076751127935292	-0.4493395373657631	1.824076648555271	-1.521633356726761	-1.521633356726763	0.5491966439266222	-0.03306761605247252	-0.424962838930697	-0.1215823066018952	-5.300206314147116e-08	7.446156779865334e-08	1.161620691417157e-06	5.967401987679137e-07	-1.845417604768639e-07	-2.215924257353558e-08	3.902109185750671e-07
0.53	-0.2448589393648251	-0.01276240086789753	0.8261643157112849	0.9747136788805235	-0.2279216734581252	-0.1242003051834723	-0.3569482526986762	0.7463018591903291	0.7463018591903533	0.02784003980579075	0.1745303605904773	0.1868989439031535	0.03782392446023821	-0.5970520090989686	-0.1990259758522832	-0.4186999450118687	1.9373920089015	-0.002014337532775908	0.2520727917853632	-0.5331438694016711	1.626774542844484	1.626774542844481	-0.2632702547627896	2.336410678028183e-06	0.3622995619560234	0.0907545567793959	-0.1819316705768343	-0.02128565320867762	0.01132835268461397	-0.3172980163873191	0.1101063904876082	-0.005244115327860258	0.2111777564016575	-28.61249181236558	-7.461664826860185	0.4099981008087007	-4.167506899983041	-1.072831100006482	-681.1906227866839	61.67309089542871	0.4735859239734393	0.5742324401205036	-0.1675832731980268	-1.82982046523167	-0.04718944907942067	-0.5197085267492162	1.852578026590565	-1.663017160766759	-1.663017160766987	0.5347060575364035	0.02804749315548982	-0.4578692327667412	-0.1384233163885759	-3.045238354879488e-08	1.538731530854054e-07	1.373070964596928e-06	1.140812257267612e-06	-2.643312326112915e-07	5.692362298145108e-08	4.094715556819688e-07
